<svg width="407" height="62" viewBox="0 0 407 62" fill="none" xmlns="http://www.w3.org/2000/svg">
<path d="M26.9904 35.2914L13.04 45.4453C12.5113 43.5445 12.5309 41.44 13.0987 39.1319L13.1575 38.9282H16.4174V38.8991C17.5139 38.8797 18.6495 38.7342 19.8243 38.4627C20.9207 38.2299 22.0759 37.8808 23.2899 37.4153C24.5038 36.9304 25.7373 36.2224 26.9904 35.2914ZM24.729 33.2548C19.5208 30.5005 17.5237 26.7086 18.7376 21.8789C19.2663 19.7453 20.2452 17.9221 21.6746 16.4092C23.1039 14.8769 24.7681 13.6258 26.6673 12.656C28.5666 11.6862 30.593 10.9783 32.7468 10.5321C34.9201 10.0666 37.0053 9.83388 39.0025 9.83388C40.2751 9.83388 41.5674 9.94056 42.8792 10.1539C44.191 10.3479 45.4343 10.6873 46.6091 11.1722C47.8035 11.6571 48.8803 12.3166 49.8397 13.1506C50.7991 13.9653 51.5627 14.9933 52.1305 16.2346C52.1893 16.3316 52.2382 16.4383 52.2774 16.5547C52.3165 16.6516 52.3459 16.7486 52.3655 16.8456L39.3549 26.3304C39.8835 25.8649 40.2947 25.3896 40.5884 24.9047C40.9017 24.4198 41.1268 23.9446 41.2639 23.4791L41.352 23.13C41.7827 21.5007 41.587 20.2593 40.7646 19.4059C39.9227 18.5137 38.6109 18.0676 36.8291 18.0676C36.1634 18.0676 35.4586 18.1452 34.7145 18.3003C33.9705 18.4361 33.2656 18.6689 32.5999 18.9986C31.9538 19.3089 31.386 19.7259 30.8965 20.2496C30.407 20.7539 30.0644 21.3746 29.8686 22.1117C29.6336 23.0815 29.9665 23.964 30.8672 24.7593C31.8657 25.6127 33.7453 26.4952 36.5061 27.4069C36.6823 27.465 36.8389 27.5232 36.976 27.5814C37.1326 27.6202 37.2795 27.6687 37.4165 27.7269L27.8421 34.6804C27.2351 34.4477 26.6771 34.2149 26.1681 33.9822C25.659 33.73 25.1793 33.4876 24.729 33.2548ZM46.0805 23.4791L59.0911 14.0235C58.9736 14.1592 58.7093 14.4502 58.2981 14.8963C57.9065 15.3424 57.466 15.8467 56.9765 16.4092C56.487 16.9523 55.9975 17.5245 55.508 18.1258C55.0185 18.7076 54.6269 19.2023 54.3332 19.6096C54.02 20.0557 53.7459 20.5115 53.5109 20.977C53.2955 21.4231 53.1193 21.8304 52.9822 22.199C52.8256 22.6257 52.6983 23.0427 52.6004 23.45H52.483V23.4791H46.0805ZM43.3491 30.4618C47.5979 33.1772 49.1251 36.9013 47.9307 41.634C47.3825 43.8451 46.4427 45.7266 45.1113 47.2783C43.7799 48.8106 42.2135 50.0519 40.4122 51.0023C38.6304 51.9528 36.6921 52.6413 34.5971 53.068C32.502 53.4948 30.407 53.7081 28.312 53.7081C27.2939 53.7081 26.2268 53.6402 25.1108 53.5045C23.9947 53.3881 22.8885 53.1844 21.792 52.8935C20.6956 52.6025 19.6481 52.2146 18.6495 51.7297C17.651 51.2448 16.7503 50.6532 15.9475 49.9549C15.7126 49.8386 15.4189 49.7804 15.0665 49.7804C14.5574 49.7804 13.9504 49.8871 13.2456 50.1004C12.5407 50.2944 11.7869 50.5659 10.9841 50.9151C10.2009 51.2448 9.3786 51.623 8.5171 52.0497C7.6556 52.4765 6.82347 52.9226 6.02071 53.3881C4.10191 54.4355 2.09501 55.6283 0 56.9667L24.3178 39.3064C23.7891 41.4982 23.9654 43.0887 24.8464 44.0779C25.7667 45.1059 27.5582 45.6199 30.221 45.6199C30.9259 45.6199 31.621 45.552 32.3062 45.4162C32.9915 45.2611 33.6279 45.0283 34.2153 44.718C34.8222 44.4076 35.3411 44.0003 35.7718 43.496C36.2222 42.9917 36.5354 42.371 36.7116 41.634C37.0641 40.2374 36.8291 39.1513 36.0068 38.3754C35.1453 37.5608 33.4517 36.717 30.9259 35.8442C30.4951 35.7084 30.084 35.563 29.6924 35.4078L39.2668 28.4252C40.0891 28.7549 40.8331 29.0943 41.4988 29.4435C42.1841 29.7732 42.8009 30.1126 43.3491 30.4618Z" fill="white"/>
<path d="M70.6332 29.1816L49.9866 44.2234C50.4369 43.7773 51.1026 43.1178 51.9837 42.245C52.8648 41.3527 53.7948 40.3635 54.7738 39.2773C55.7723 38.1911 56.7513 37.0759 57.7107 35.9315C58.6701 34.7677 59.4631 33.6815 60.0896 32.6729L60.677 10.7067H71.7199L70.6332 29.1816ZM91.6323 13.9071L74.8918 26.0976L82.2635 10.7067H91.691L91.6616 10.9977L91.6323 13.9071ZM84.7305 52.9517L102.587 39.9465C101.706 40.8775 100.864 41.7891 100.061 42.6814C99.5718 43.2051 99.1606 43.6512 98.8278 44.0197C98.5145 44.3882 98.1914 44.7665 97.8586 45.1544C97.5257 45.5423 97.2026 45.9302 96.8894 46.3182C96.5957 46.6867 96.3314 47.0261 96.0964 47.3365L93.4532 52.9517H84.7305ZM82.146 30.1126L70.8975 52.9517H59.561L59.9134 39.0155L70.5157 31.3055L70.2514 35.7569L73.3939 29.2107L98.7396 10.8522C97.4866 12.0354 96.3509 13.1991 95.3328 14.3435C94.7258 15.003 94.2363 15.5655 93.8643 16.031C93.4923 16.4771 93.1399 16.9426 92.807 17.4275C92.4938 17.893 92.2099 18.3585 91.9553 18.824C91.7204 19.2895 91.5735 19.7066 91.5148 20.0751L91.2505 35.786L102.323 10.7067H113.395L99.7382 39.6265L78.7098 54.9301C79.0818 54.5422 79.4636 54.1251 79.8552 53.679C80.2076 53.2717 80.5698 52.845 80.9418 52.3989C81.3334 51.9334 81.7054 51.4485 82.0579 50.9442L82.146 30.1126Z" fill="white"/>
<path d="M118.711 21.8207L140.15 6.22618C139.974 6.40075 139.583 6.82747 138.976 7.50633C138.369 8.1852 137.683 8.96105 136.92 9.83388C136.156 10.7067 135.393 11.5989 134.629 12.5106C133.865 13.4222 133.258 14.198 132.808 14.8381C132.103 15.8273 131.555 16.8068 131.163 17.7766C130.772 18.7464 130.498 19.5126 130.341 20.0751L126.817 34.1276L107.462 48.2093C107.58 48.0929 107.864 47.7923 108.314 47.3074C108.764 46.8031 109.264 46.2309 109.812 45.5908C110.38 44.9507 110.938 44.301 111.486 43.6415C112.054 42.9626 112.504 42.3904 112.837 41.9249C113.326 41.246 113.708 40.5575 113.982 39.8592C114.276 39.161 114.491 38.6082 114.628 38.2008L118.711 21.8207ZM126.2 36.6297V36.6588L132.25 32.2656C131.447 33.119 130.684 33.9434 129.959 34.7386C129.528 35.2041 129.166 35.6018 128.873 35.9315C128.598 36.2612 128.324 36.591 128.05 36.9207C127.776 37.2504 127.502 37.5802 127.228 37.9099C126.973 38.2396 126.758 38.5306 126.582 38.7827C126.21 39.3064 125.896 39.8398 125.642 40.3829C125.387 40.9066 125.182 41.3915 125.025 41.8376C124.829 42.3419 124.683 42.8268 124.585 43.2923H124.526L122.118 53.068H110.899L112.514 46.6091L126.2 36.6297ZM131.604 10.3867L111.486 25.0211C111.643 24.8465 112.024 24.4198 112.631 23.741C113.258 23.0621 113.953 22.2959 114.717 21.4425C115.48 20.5697 116.244 19.6775 117.007 18.7658C117.771 17.8348 118.388 17.0493 118.858 16.4092C119.328 15.7109 119.729 15.0127 120.062 14.3144C120.414 13.6161 120.688 12.9761 120.884 12.3942C121.139 11.7347 121.344 11.0946 121.501 10.474H121.53L121.56 10.3867H131.604Z" fill="white"/>
<path d="M151.34 24.8465L137.595 34.8259L143.675 10.503H171.047L153.748 23.0718C154.629 22.2959 155.325 21.6074 155.834 21.0061C156.166 20.657 156.392 20.3757 156.509 20.1624C156.646 19.949 156.724 19.755 156.744 19.5805C156.764 19.4059 156.715 19.2604 156.597 19.1441C156.48 19.0277 156.255 18.9695 155.922 18.9695C155.628 18.9695 155.403 18.9404 155.246 18.8822H152.838L151.34 24.8465ZM127.257 62L145.349 48.7912L144.321 53.2135C142.989 53.5045 141.462 54.0088 139.739 54.7264C138.153 55.3859 136.332 56.2781 134.277 57.4031C132.24 58.5475 129.9 60.0798 127.257 62ZM162.324 18.8822L180.563 5.6152C180.308 5.80917 179.828 6.20679 179.123 6.80807C178.419 7.40935 177.655 8.15611 176.833 9.04833C176.01 9.92116 175.208 10.9007 174.424 11.9869C173.641 13.073 173.044 14.198 172.633 15.3618L171.752 18.8822H162.324ZM150.723 27.3487L150.547 28.0469H167.728L165.643 36.4552H148.433L146.641 43.6706C146.641 43.8063 146.68 43.9421 146.758 44.0779C146.856 44.1943 147.052 44.2525 147.346 44.2525C147.6 44.2525 147.933 44.1943 148.344 44.0779C148.756 43.9421 149.284 43.7191 149.93 43.4087C149.93 43.4087 149.735 43.5542 149.343 43.8451C148.951 44.1361 148.433 44.5143 147.786 44.9798C147.16 45.4259 146.435 45.9496 145.613 46.5509C144.81 47.1328 143.988 47.7244 143.146 48.3257C141.169 49.761 138.927 51.3903 136.42 53.2135H133.014L135.275 44.1943C135.275 44.1167 135.285 44.0391 135.304 43.9615C135.324 43.8645 135.344 43.7676 135.363 43.6706C135.559 42.9141 135.52 42.4001 135.246 42.1286C134.972 41.857 134.57 41.7213 134.042 41.7213C133.572 41.7213 133.033 41.8085 132.426 41.9831C131.8 42.1577 131.212 42.3516 130.664 42.565C130.096 42.7783 129.607 42.9917 129.196 43.2051C128.765 43.4184 128.481 43.5542 128.344 43.6124L150.723 27.3487Z" fill="white"/>
<path d="M185.027 44.8343L205.791 29.7053C204.871 30.7139 203.98 31.6934 203.118 32.6438C202.629 33.2063 202.218 33.6815 201.885 34.0694C201.552 34.438 201.219 34.8259 200.886 35.2332C200.553 35.6211 200.23 36.0091 199.917 36.397C199.623 36.7655 199.369 37.105 199.153 37.4153C198.566 38.2493 198.096 39.0834 197.744 39.9174C197.411 40.732 197.166 41.3915 197.009 41.8958L194.219 53.0389H182.971L185.027 44.8343ZM190.724 10.2994L170.577 24.9629C170.753 24.7884 171.145 24.3616 171.752 23.6828C172.378 23.0039 173.073 22.2281 173.837 21.3552C174.601 20.4824 175.364 19.5902 176.128 18.6786C176.891 17.7669 177.498 16.9814 177.949 16.3219C178.301 15.8176 178.614 15.3133 178.889 14.809C179.163 14.2853 179.398 13.7907 179.593 13.3252C179.809 12.8597 179.985 12.433 180.122 12.045C180.259 11.6377 180.357 11.2983 180.416 11.0267L180.621 10.2994H190.724ZM199.888 10.2994H218.155L216.07 18.6786H202.795L199.506 31.8583L181.267 45.1253C182.149 44.2913 182.961 43.4378 183.705 42.565C184.155 42.0607 184.518 41.6243 184.792 41.2557C185.066 40.8872 185.33 40.4993 185.585 40.092C185.859 39.6847 186.104 39.2773 186.319 38.87C186.534 38.4433 186.701 38.0263 186.818 37.619L191.547 18.6786H182.002L207.67 0C205.712 1.74566 204.058 3.33615 202.707 4.77147C201.885 5.6249 201.258 6.31347 200.827 6.83717C200.416 7.36086 200.083 7.86516 199.829 8.35007C199.574 8.81558 199.427 9.2326 199.388 9.60113C199.369 9.95026 199.535 10.183 199.888 10.2994Z" fill="white"/>
<path d="M265.293 2.47302L232.869 26.0685C233.496 25.5642 234.132 25.0211 234.778 24.4392C235.444 23.8573 236.051 23.2755 236.599 22.6936C237.167 22.0923 237.647 21.5298 238.038 21.0061C238.449 20.463 238.724 20.0072 238.861 19.6387L241.21 10.2412H245.997C246.389 10.2218 246.937 10.183 247.642 10.1248C248.347 10.0472 249.13 9.92116 249.992 9.7466C250.853 9.55264 251.764 9.30048 252.723 8.99015C253.702 8.67981 254.661 8.27249 255.601 7.76818C256.658 7.1863 257.706 6.61411 258.744 6.05162C259.801 5.46973 260.77 4.93634 261.651 4.45143C262.552 3.96653 263.325 3.54951 263.971 3.20038C264.618 2.83185 265.058 2.58939 265.293 2.47302ZM235.748 32.0038C235.806 31.6158 235.845 31.2473 235.865 30.8982C235.904 30.549 235.894 30.2387 235.836 29.9672C235.777 29.6956 235.659 29.4822 235.483 29.3271C235.327 29.1719 235.092 29.0943 234.778 29.0943C234.348 29.0943 233.819 29.2301 233.192 29.5016C232.292 29.8896 231.46 30.2678 230.696 30.6363C229.932 31.0048 229.257 31.3249 228.67 31.5964C228.004 31.9262 227.387 32.2462 226.819 32.5565L251.313 14.6926L247.965 28.1342L265.176 10.2412H279.155L259.214 29.2107C259.703 30.4715 260.144 31.6061 260.535 32.6147C260.77 33.216 260.956 33.6912 261.093 34.0404C261.23 34.3895 261.358 34.7192 261.475 35.0296C261.593 35.3205 261.69 35.5727 261.769 35.786C261.847 35.98 261.886 36.0867 261.886 36.1061C262.141 36.7267 262.493 37.2601 262.943 37.7062C263.394 38.133 264.04 38.3463 264.882 38.3463C265.43 38.3463 266.086 38.2202 266.85 37.9681C267.613 37.7159 268.504 37.2989 269.522 36.717C269.503 36.717 269.16 36.9595 268.494 37.4444C267.848 37.9099 266.996 38.5306 265.939 39.3064C264.882 40.0629 263.668 40.9357 262.297 41.9249C260.946 42.9141 259.566 43.9227 258.156 44.9507C254.847 47.3559 251.088 50.0907 246.878 53.1553C246.996 53.0389 247.221 52.8159 247.554 52.4862C247.906 52.137 248.298 51.7297 248.729 51.2642C249.159 50.7793 249.6 50.2556 250.05 49.6931C250.501 49.1112 250.902 48.5293 251.255 47.9474C251.627 47.3462 251.901 46.7643 252.077 46.2018C252.273 45.6393 252.322 45.1253 252.224 44.6598L249.698 37.4444L244.558 41.6922L241.768 52.9226H230.549L235.748 32.0038ZM238.508 61.3308L264.353 42.5359L268.347 52.9226H255.337C255.063 52.942 254.495 53.0486 253.633 53.2426C252.792 53.4366 251.666 53.8245 250.256 54.4064C248.846 55.0077 247.153 55.8514 245.175 56.9376C243.217 58.0432 240.995 59.5076 238.508 61.3308Z" fill="white"/>
<path d="M294.163 24.1774L280.506 34.1276L286.351 10.6776H312.695L301.212 19.0277H295.455L294.163 24.1774ZM284.442 61.5927L310.992 42.3322C310.678 42.662 310.365 43.0596 310.052 43.5251C309.739 43.9906 309.445 44.4852 309.171 45.0089C308.897 45.5132 308.652 46.0272 308.437 46.5509C308.221 47.0746 308.055 47.5498 307.937 47.9765L306.616 53.2135H299.538C299.146 53.2523 298.627 53.3978 297.981 53.6499C297.335 53.9021 296.62 54.2221 295.837 54.61C295.054 55.0174 294.232 55.4635 293.37 55.9484C292.509 56.4527 291.657 56.9667 290.815 57.4904C288.818 58.7123 286.693 60.0798 284.442 61.5927ZM269.346 44.3107L323.65 4.77147C322.573 5.87705 321.545 7.06992 320.566 8.35007C319.979 9.08713 319.489 9.7466 319.098 10.3285C318.706 10.891 318.314 11.5117 317.923 12.1905C317.531 12.85 317.149 13.5483 316.777 14.2853C316.425 15.0224 316.112 15.7788 315.838 16.5547L315.221 19.0277H307.144C307.066 19.0471 307.007 19.0568 306.968 19.0568H306.939C306.665 19.0568 306.302 19.1053 305.852 19.2023C305.421 19.2798 304.912 19.5514 304.325 20.0169C303.894 20.3272 303.268 20.783 302.445 21.3843C301.642 21.9856 300.81 22.616 299.949 23.2755C299.107 23.9155 298.324 24.5168 297.599 25.0793C296.894 25.6224 296.415 26.0006 296.16 26.214C296.043 26.2916 295.915 26.3885 295.778 26.5049C295.661 26.6019 295.553 26.7086 295.455 26.825C295.377 26.9219 295.328 27.0189 295.308 27.1159C295.308 27.2129 295.377 27.2808 295.514 27.3196H310.052L308.055 35.3787H291.373L288.994 44.8634H304.677L285.91 58.4796C286.067 58.3438 286.312 58.1208 286.645 57.8104C286.997 57.5001 287.359 57.1509 287.731 56.763C288.123 56.3945 288.505 56.0066 288.877 55.5992C289.249 55.1919 289.552 54.8137 289.787 54.4646C290.022 54.1348 290.149 53.8536 290.169 53.6208C290.188 53.3881 290.051 53.2523 289.758 53.2135H275.719C276.248 51.0993 276.718 49.2179 277.129 47.5692C277.383 46.5606 277.579 45.7654 277.716 45.1835C277.873 44.5822 278.01 44.0391 278.127 43.5542C278.245 43.0693 278.343 42.662 278.421 42.3322C278.499 42.0025 278.548 41.8279 278.568 41.8085C278.627 41.5176 278.588 41.3139 278.45 41.1976C278.313 41.0618 278.098 40.9939 277.804 40.9939C277.511 40.9939 277.168 41.0424 276.776 41.1394C276.404 41.2364 275.993 41.3624 275.543 41.5176C275.093 41.6728 274.623 41.8473 274.133 42.0413C273.663 42.2353 273.193 42.4389 272.723 42.6523C271.647 43.1372 270.521 43.69 269.346 44.3107Z" fill="white"/>
<path d="M334.84 16.2637L337.248 28.4833L349.524 10.8231H361.595L349.231 26.7377L323.415 45.5326C324.551 44.3107 325.539 43.0984 326.381 41.8958C326.89 41.1976 327.282 40.606 327.556 40.1211C327.83 39.6362 328.065 39.1416 328.261 38.6373C328.457 38.1136 328.603 37.5996 328.701 37.0953C328.799 36.591 328.79 36.1254 328.672 35.6987L324.208 19.3477L342.035 6.37166C341.878 6.54622 341.595 6.85656 341.183 7.30267C340.772 7.72939 340.292 8.24339 339.744 8.84467C339.216 9.44596 338.658 10.1054 338.07 10.8231C337.502 11.5214 336.974 12.2099 336.484 12.8888C336.014 13.5677 335.623 14.2077 335.309 14.809C334.996 15.3909 334.84 15.8758 334.84 16.2637ZM327.527 44.9216L352.344 26.8541C350.797 28.3088 349.358 29.6859 348.026 30.9855C347.243 31.7613 346.597 32.4014 346.088 32.9057C345.599 33.41 345.109 33.9143 344.62 34.4186C344.15 34.9229 343.719 35.3981 343.327 35.8442C342.936 36.2903 342.632 36.6588 342.417 36.9498C342.045 37.4929 341.683 38.0651 341.33 38.6664C340.997 39.2676 340.694 39.8495 340.42 40.412C340.146 40.9551 339.911 41.44 339.715 41.8667C339.539 42.274 339.411 42.565 339.333 42.7396L336.749 53.068H325.5L327.527 44.9216ZM313.253 25.3121C313.41 25.1375 313.792 24.7205 314.399 24.061C315.025 23.3821 315.71 22.616 316.454 21.7626C317.218 20.8897 317.972 20.0072 318.716 19.115C319.479 18.2033 320.086 17.4275 320.537 16.7874C321.026 16.1086 321.359 15.42 321.535 14.7217C321.731 14.0235 321.858 13.3931 321.917 12.8306C321.956 12.1711 321.927 11.531 321.829 10.9104H321.858L321.829 10.8231H333.136L313.253 25.3121Z" fill="white"/>
<path d="M374.899 35.2914L360.949 45.4453C360.42 43.5445 360.44 41.44 361.008 39.1319L361.066 38.9282H364.326V38.8991C365.423 38.8797 366.558 38.7342 367.733 38.4627C368.83 38.2299 369.985 37.8808 371.199 37.4153C372.413 36.9304 373.646 36.2224 374.899 35.2914ZM372.638 33.2548C367.43 30.5005 365.433 26.7086 366.647 21.8789C367.175 19.7453 368.154 17.9221 369.583 16.4092C371.013 14.8769 372.677 13.6258 374.576 12.656C376.475 11.6862 378.502 10.9783 380.656 10.5321C382.829 10.0666 384.914 9.83388 386.911 9.83388C388.184 9.83388 389.476 9.94056 390.788 10.1539C392.1 10.3479 393.343 10.6873 394.518 11.1722C395.712 11.6571 396.789 12.3166 397.749 13.1506C398.708 13.9653 399.472 14.9933 400.039 16.2346C400.098 16.3316 400.147 16.4383 400.186 16.5547C400.225 16.6516 400.255 16.7486 400.274 16.8456L387.264 26.3304C387.792 25.8649 388.204 25.3896 388.497 24.9047C388.811 24.4198 389.036 23.9446 389.173 23.4791L389.261 23.13C389.692 21.5007 389.496 20.2593 388.674 19.4059C387.832 18.5137 386.52 18.0676 384.738 18.0676C384.072 18.0676 383.367 18.1452 382.623 18.3003C381.879 18.4361 381.175 18.6689 380.509 18.9986C379.863 19.3089 379.295 19.7259 378.805 20.2496C378.316 20.7539 377.973 21.3746 377.778 22.1117C377.543 23.0815 377.875 23.964 378.776 24.7593C379.775 25.6127 381.654 26.4952 384.415 27.4069C384.591 27.465 384.748 27.5232 384.885 27.5814C385.042 27.6202 385.188 27.6687 385.325 27.7269L375.751 34.6804C375.144 34.4477 374.586 34.2149 374.077 33.9822C373.568 33.73 373.088 33.4876 372.638 33.2548ZM393.989 23.4791L407 14.0235C406.883 14.1592 406.618 14.4502 406.207 14.8963C405.815 15.3424 405.375 15.8467 404.885 16.4092C404.396 16.9523 403.906 17.5245 403.417 18.1258C402.927 18.7076 402.536 19.2023 402.242 19.6096C401.929 20.0557 401.655 20.5115 401.42 20.977C401.204 21.4231 401.028 21.8304 400.891 22.199C400.735 22.6257 400.607 23.0427 400.509 23.45H400.392V23.4791H393.989ZM391.258 30.4618C395.507 33.1772 397.034 36.9013 395.84 41.634C395.291 43.8451 394.352 45.7266 393.02 47.2783C391.689 48.8106 390.122 50.0519 388.321 51.0023C386.539 51.9528 384.601 52.6413 382.506 53.068C380.411 53.4948 378.316 53.7081 376.221 53.7081C375.203 53.7081 374.136 53.6402 373.02 53.5045C371.904 53.3881 370.797 53.1844 369.701 52.8935C368.605 52.6025 367.557 52.2146 366.558 51.7297C365.56 51.2448 364.659 50.6532 363.856 49.9549C363.622 49.8386 363.328 49.7804 362.975 49.7804C362.466 49.7804 361.859 49.8871 361.154 50.1004C360.45 50.2944 359.696 50.5659 358.893 50.9151C358.11 51.2448 357.288 51.623 356.426 52.0497C355.565 52.4765 354.732 52.9226 353.93 53.3881C352.011 54.4355 350.004 55.6283 347.909 56.9667L372.227 39.3064C371.698 41.4982 371.874 43.0887 372.755 44.0779C373.676 45.1059 375.467 45.6199 378.13 45.6199C378.835 45.6199 379.53 45.552 380.215 45.4162C380.9 45.2611 381.537 45.0283 382.124 44.718C382.731 44.4076 383.25 44.0003 383.681 43.496C384.131 42.9917 384.444 42.371 384.621 41.634C384.973 40.2374 384.738 39.1513 383.916 38.3754C383.054 37.5608 381.361 36.717 378.835 35.8442C378.404 35.7084 377.993 35.563 377.601 35.4078L387.176 28.4252C387.998 28.7549 388.742 29.0943 389.408 29.4435C390.093 29.7732 390.71 30.1126 391.258 30.4618Z" fill="white"/>
</svg>
